<?xml version="1.0" encoding="iso-8859-1"?>
<!-- Generator: Adobe Illustrator 21.1.0, SVG Export Plug-In . SVG Version: 6.00 Build 0)  -->
<svg xmlns="http://www.w3.org/2000/svg" xmlns:xlink="http://www.w3.org/1999/xlink" version="1.1" id="Layer_1" x="0px" y="0px" viewBox="0 0 64 64" style="enable-background:new 0 0 64 64;" xml:space="preserve">
<g>
	<path style="fill:#BECDE8;" d="M58,55H6c-1.657,0-3-1.343-3-3V18c0-1.657,1.343-3,3-3h15l4-6h15l4,6h14c1.657,0,3,1.343,3,3v34   C61,53.657,59.657,55,58,55z"/>
	<path style="fill:#A8B7D1;" d="M60,55L60,55c-1.657,0-3-1.343-3-3V18c0-1.657,1.343-3,3-3l0,0V55z"/>
	<path style="fill:#D6DFF2;" d="M4,55L4,55c1.657,0,3-1.343,3-3V18c0-1.657-1.343-3-3-3l0,0V55z"/>
	<polygon style="fill:#D6DFF2;" points="45,16 19,16 25,9 39,9  "/>
	<path style="fill:#FFEB9B;" d="M39,26v6c0,0.41-0.04,0.82-0.11,1.21C38.32,36.5,35.46,39,32,39s-6.32-2.5-6.89-5.79   C25.04,32.82,25,32.41,25,32v-6c0-3.87,3.13-7,7-7c1.94,0,3.68,0.78,4.95,2.05S39,24.06,39,26z"/>
	<rect x="10" y="12" style="fill:#ACB7D0;" width="6" height="3"/>
	<rect x="51" y="12" style="fill:#ACB7D0;" width="4" height="3"/>
	<path style="fill:#F5C872;" d="M38.89,33.21C38.32,36.5,35.46,39,32,39s-6.32-2.5-6.89-5.79C25.45,31.93,26.61,31,28,31h8   C37.39,31,38.55,31.93,38.89,33.21z"/>
	<g>
		<path style="fill:#8D6C9F;" d="M52,30c-0.553,0-1,0.448-1,1v2c0,0.552,0.447,1,1,1s1-0.448,1-1v-2C53,30.448,52.553,30,52,30z"/>
		<path style="fill:#8D6C9F;" d="M57,30c-0.553,0-1,0.448-1,1v2c0,0.552,0.447,1,1,1s1-0.448,1-1v-2C58,30.448,57.553,30,57,30z"/>
		<path style="fill:#8D6C9F;" d="M47,30c-0.553,0-1,0.448-1,1v2c0,0.552,0.447,1,1,1s1-0.448,1-1v-2C48,30.448,47.553,30,47,30z"/>
		<path style="fill:#8D6C9F;" d="M12,30c-0.553,0-1,0.448-1,1v2c0,0.552,0.447,1,1,1s1-0.448,1-1v-2C13,30.448,12.553,30,12,30z"/>
		<path style="fill:#8D6C9F;" d="M17,30c-0.553,0-1,0.448-1,1v2c0,0.552,0.447,1,1,1s1-0.448,1-1v-2C18,30.448,17.553,30,17,30z"/>
		<path style="fill:#8D6C9F;" d="M7,30c-0.553,0-1,0.448-1,1v2c0,0.552,0.447,1,1,1s1-0.448,1-1v-2C8,30.448,7.553,30,7,30z"/>
		<path style="fill:#8D6C9F;" d="M59,14h-3v-1c0-1.103-0.897-2-2-2h-2c-1.103,0-2,0.897-2,2v1h-4.936    c-0.334,0-0.644-0.165-0.83-0.441l-2.256-3.351C41.049,8.825,39.498,8,37.831,8h-11.69c-1.675,0-3.23,0.833-4.16,2.227    l-2.219,3.328C19.576,13.833,19.265,14,18.93,14H18v-2c0-1.103-0.897-2-2-2h-6c-1.103,0-2,0.897-2,2v2H5c-1.654,0-3,1.346-3,3v36    c0,1.654,1.346,3,3,3h54c1.654,0,3-1.346,3-3V17C62,15.346,60.654,14,59,14z M52,13h2v1h-2V13z M10,12h6v2h-6V12z M60,53    c0,0.551-0.448,1-1,1H5c-0.552,0-1-0.449-1-1V17c0-0.551,0.448-1,1-1h3h10h0.93c1.005,0,1.938-0.5,2.496-1.336l2.219-3.328    C24.202,10.5,25.136,10,26.141,10h11.69c1,0,1.931,0.495,2.489,1.325l2.255,3.351C43.134,15.505,44.063,16,45.064,16H50h6h3    c0.552,0,1,0.449,1,1V53z"/>
		<path style="fill:#8D6C9F;" d="M32,40c4.411,0,8-3.589,8-8v-6c0-4.411-3.589-8-8-8s-8,3.589-8,8v6C24,36.411,27.589,40,32,40z     M26,26c0-3.309,2.691-6,6-6s6,2.691,6,6v6c0,3.309-2.691,6-6,6s-6-2.691-6-6V26z"/>
		<path style="fill:#8D6C9F;" d="M43,30c-0.553,0-1,0.448-1,1v1c0,5.514-4.486,10-10,10s-10-4.486-10-10v-1c0-0.552-0.447-1-1-1    s-1,0.448-1,1v1c0,6.279,4.85,11.438,11,11.949V48h-6c-0.553,0-1,0.448-1,1s0.447,1,1,1h14c0.553,0,1-0.448,1-1s-0.447-1-1-1h-6    v-4.051c6.15-0.511,11-5.67,11-11.949v-1C44,30.448,43.553,30,43,30z"/>
	</g>
</g>
</svg>
